<svg width="224" height="35" viewBox="0 0 224 35" fill="none" xmlns="http://www.w3.org/2000/svg">
<path d="M44.6943 8.25391V12.1504H47.4043V15.2559H44.6943V23.166C44.6943 23.752 44.8066 24.1719 45.0312 24.4258C45.2559 24.6797 45.6855 24.8066 46.3203 24.8066C46.7891 24.8066 47.2041 24.7725 47.5654 24.7041V27.9121C46.7354 28.166 45.8809 28.293 45.002 28.293C42.0332 28.293 40.5195 26.7939 40.4609 23.7959V15.2559H38.1465V12.1504H40.4609V8.25391H44.6943ZM58.9473 28C58.752 27.6191 58.6104 27.1455 58.5225 26.5791C57.4971 27.7217 56.1641 28.293 54.5234 28.293C52.9707 28.293 51.6816 27.8438 50.6562 26.9453C49.6406 26.0469 49.1328 24.9141 49.1328 23.5469C49.1328 21.8672 49.7529 20.5781 50.9932 19.6797C52.2432 18.7812 54.0449 18.3271 56.3984 18.3174H58.3467V17.4092C58.3467 16.6768 58.1562 16.0908 57.7754 15.6514C57.4043 15.2119 56.8135 14.9922 56.0029 14.9922C55.29 14.9922 54.7285 15.1631 54.3184 15.5049C53.918 15.8467 53.7178 16.3154 53.7178 16.9111H49.4844C49.4844 15.9932 49.7676 15.1436 50.334 14.3623C50.9004 13.5811 51.7012 12.9707 52.7363 12.5312C53.7715 12.082 54.9336 11.8574 56.2227 11.8574C58.1758 11.8574 59.7236 12.3506 60.8662 13.3369C62.0186 14.3135 62.5947 15.6904 62.5947 17.4678V24.3379C62.6045 25.8418 62.8145 26.9795 63.2246 27.751V28H58.9473ZM55.4463 25.0557C56.0713 25.0557 56.6475 24.9189 57.1748 24.6455C57.7021 24.3623 58.0928 23.9863 58.3467 23.5176V20.793H56.7646C54.6455 20.793 53.5176 21.5254 53.3809 22.9902L53.3662 23.2393C53.3662 23.7666 53.5518 24.2012 53.9229 24.543C54.2939 24.8848 54.8018 25.0557 55.4463 25.0557ZM74.4307 23.6201C74.4307 23.1025 74.1719 22.6973 73.6543 22.4043C73.1465 22.1016 72.3262 21.833 71.1934 21.5986C67.4238 20.8076 65.5391 19.2061 65.5391 16.7939C65.5391 15.3877 66.1201 14.2158 67.2822 13.2783C68.4541 12.3311 69.9824 11.8574 71.8672 11.8574C73.8789 11.8574 75.4854 12.3311 76.6865 13.2783C77.8975 14.2256 78.5029 15.4561 78.5029 16.9697H74.2695C74.2695 16.3643 74.0742 15.8662 73.6836 15.4756C73.293 15.0752 72.6826 14.875 71.8525 14.875C71.1396 14.875 70.5879 15.0361 70.1973 15.3584C69.8066 15.6807 69.6113 16.0908 69.6113 16.5889C69.6113 17.0576 69.8311 17.4385 70.2705 17.7314C70.7197 18.0146 71.4717 18.2637 72.5264 18.4785C73.5811 18.6836 74.4697 18.918 75.1924 19.1816C77.4287 20.002 78.5469 21.4229 78.5469 23.4443C78.5469 24.8896 77.9268 26.0615 76.6865 26.96C75.4463 27.8486 73.8447 28.293 71.8818 28.293C70.5537 28.293 69.3721 28.0586 68.3369 27.5898C67.3115 27.1113 66.5059 26.4619 65.9199 25.6416C65.334 24.8115 65.041 23.918 65.041 22.9609H69.0547C69.0938 23.7129 69.3721 24.2891 69.8896 24.6895C70.4072 25.0898 71.1006 25.29 71.9697 25.29C72.7803 25.29 73.3906 25.1387 73.8008 24.8359C74.2207 24.5234 74.4307 24.1182 74.4307 23.6201ZM87.043 21.6426L85.5195 23.166V28H81.2861V5.5H85.5195V17.9658L86.3398 16.9111L90.3975 12.1504H95.4805L89.7529 18.7568L95.9785 28H91.1152L87.043 21.6426ZM103.332 6.67188L108.811 22.1406L114.26 6.67188H120.031V28H115.622V22.1699L116.062 12.1064L110.305 28H107.287L101.545 12.1211L101.984 22.1699V28H97.5898V6.67188H103.332ZM132.775 28C132.58 27.6191 132.438 27.1455 132.351 26.5791C131.325 27.7217 129.992 28.293 128.352 28.293C126.799 28.293 125.51 27.8438 124.484 26.9453C123.469 26.0469 122.961 24.9141 122.961 23.5469C122.961 21.8672 123.581 20.5781 124.821 19.6797C126.071 18.7812 127.873 18.3271 130.227 18.3174H132.175V17.4092C132.175 16.6768 131.984 16.0908 131.604 15.6514C131.232 15.2119 130.642 14.9922 129.831 14.9922C129.118 14.9922 128.557 15.1631 128.146 15.5049C127.746 15.8467 127.546 16.3154 127.546 16.9111H123.312C123.312 15.9932 123.596 15.1436 124.162 14.3623C124.729 13.5811 125.529 12.9707 126.564 12.5312C127.6 12.082 128.762 11.8574 130.051 11.8574C132.004 11.8574 133.552 12.3506 134.694 13.3369C135.847 14.3135 136.423 15.6904 136.423 17.4678V24.3379C136.433 25.8418 136.643 26.9795 137.053 27.751V28H132.775ZM129.274 25.0557C129.899 25.0557 130.476 24.9189 131.003 24.6455C131.53 24.3623 131.921 23.9863 132.175 23.5176V20.793H130.593C128.474 20.793 127.346 21.5254 127.209 22.9902L127.194 23.2393C127.194 23.7666 127.38 24.2012 127.751 24.543C128.122 24.8848 128.63 25.0557 129.274 25.0557ZM143.571 12.1504L143.703 13.9814C144.836 12.5654 146.354 11.8574 148.259 11.8574C149.938 11.8574 151.188 12.3506 152.009 13.3369C152.829 14.3232 153.249 15.7979 153.269 17.7607V28H149.035V17.8633C149.035 16.9648 148.84 16.3154 148.449 15.915C148.059 15.5049 147.409 15.2998 146.501 15.2998C145.31 15.2998 144.416 15.8076 143.82 16.8232V28H139.587V12.1504H143.571ZM165.676 28C165.48 27.6191 165.339 27.1455 165.251 26.5791C164.226 27.7217 162.893 28.293 161.252 28.293C159.699 28.293 158.41 27.8438 157.385 26.9453C156.369 26.0469 155.861 24.9141 155.861 23.5469C155.861 21.8672 156.481 20.5781 157.722 19.6797C158.972 18.7812 160.773 18.3271 163.127 18.3174H165.075V17.4092C165.075 16.6768 164.885 16.0908 164.504 15.6514C164.133 15.2119 163.542 14.9922 162.731 14.9922C162.019 14.9922 161.457 15.1631 161.047 15.5049C160.646 15.8467 160.446 16.3154 160.446 16.9111H156.213C156.213 15.9932 156.496 15.1436 157.062 14.3623C157.629 13.5811 158.43 12.9707 159.465 12.5312C160.5 12.082 161.662 11.8574 162.951 11.8574C164.904 11.8574 166.452 12.3506 167.595 13.3369C168.747 14.3135 169.323 15.6904 169.323 17.4678V24.3379C169.333 25.8418 169.543 26.9795 169.953 27.751V28H165.676ZM162.175 25.0557C162.8 25.0557 163.376 24.9189 163.903 24.6455C164.431 24.3623 164.821 23.9863 165.075 23.5176V20.793H163.493C161.374 20.793 160.246 21.5254 160.109 22.9902L160.095 23.2393C160.095 23.7666 160.28 24.2012 160.651 24.543C161.022 24.8848 161.53 25.0557 162.175 25.0557ZM171.96 19.958C171.96 17.5264 172.536 15.5684 173.688 14.084C174.851 12.5996 176.413 11.8574 178.376 11.8574C180.114 11.8574 181.467 12.4531 182.434 13.6445L182.609 12.1504H186.447V27.4727C186.447 28.8594 186.13 30.0654 185.495 31.0908C184.87 32.1162 183.986 32.8975 182.844 33.4346C181.701 33.9717 180.363 34.2402 178.83 34.2402C177.668 34.2402 176.535 34.0059 175.432 33.5371C174.328 33.0781 173.493 32.4824 172.927 31.75L174.802 29.1719C175.856 30.3535 177.136 30.9443 178.64 30.9443C179.763 30.9443 180.637 30.6416 181.262 30.0361C181.887 29.4404 182.199 28.5908 182.199 27.4873V26.6377C181.223 27.7412 179.938 28.293 178.347 28.293C176.442 28.293 174.899 27.5508 173.718 26.0664C172.546 24.5723 171.96 22.5947 171.96 20.1338V19.958ZM176.193 20.2656C176.193 21.7012 176.481 22.8291 177.058 23.6494C177.634 24.46 178.425 24.8652 179.431 24.8652C180.72 24.8652 181.643 24.3818 182.199 23.415V16.75C181.633 15.7832 180.72 15.2998 179.46 15.2998C178.444 15.2998 177.644 15.7148 177.058 16.5449C176.481 17.375 176.193 18.6152 176.193 20.2656ZM197.009 28.293C194.685 28.293 192.79 27.5801 191.325 26.1543C189.87 24.7285 189.143 22.8291 189.143 20.4561V20.0459C189.143 18.4541 189.45 17.0332 190.065 15.7832C190.681 14.5234 191.55 13.5566 192.673 12.8828C193.806 12.1992 195.095 11.8574 196.54 11.8574C198.708 11.8574 200.412 12.541 201.652 13.9082C202.902 15.2754 203.527 17.2139 203.527 19.7236V21.4521H193.435C193.571 22.4873 193.981 23.3174 194.665 23.9424C195.358 24.5674 196.232 24.8799 197.287 24.8799C198.918 24.8799 200.192 24.2891 201.11 23.1074L203.19 25.4365C202.556 26.335 201.696 27.0381 200.612 27.5459C199.528 28.0439 198.327 28.293 197.009 28.293ZM196.525 15.2852C195.686 15.2852 195.002 15.5684 194.475 16.1348C193.957 16.7012 193.625 17.5117 193.479 18.5664H199.367V18.2295C199.348 17.292 199.094 16.5693 198.605 16.0615C198.117 15.5439 197.424 15.2852 196.525 15.2852ZM214.851 16.1201C214.274 16.042 213.767 16.0029 213.327 16.0029C211.726 16.0029 210.676 16.5449 210.178 17.6289V28H205.944V12.1504H209.943L210.061 14.04C210.91 12.585 212.087 11.8574 213.591 11.8574C214.06 11.8574 214.499 11.9209 214.909 12.0479L214.851 16.1201Z" fill="#2A8CFF"/>
<path d="M28.4167 17.3116V18.5C28.4151 21.2854 27.5131 23.9956 25.8454 26.2265C24.1776 28.4574 21.8334 30.0894 19.1623 30.8792C16.4912 31.6689 13.6364 31.5741 11.0237 30.6088C8.4109 29.6435 6.18016 27.8595 4.66414 25.5229C3.14812 23.1862 2.42804 20.4221 2.61131 17.6427C2.79458 14.8634 3.87137 12.2177 5.68109 10.1004C7.49081 7.983 9.93649 6.50736 12.6534 5.89351C15.3703 5.27966 18.2128 5.56051 20.7571 6.69415" stroke="#2A8CFF" stroke-width="2" stroke-linecap="round" stroke-linejoin="round"/>
<path d="M28.4167 8.16666L15.5 21.0962L11.625 17.2212" stroke="#2A8CFF" stroke-width="2" stroke-linecap="round" stroke-linejoin="round"/>
</svg>
